<?xml version="1.0" encoding="utf-8"?>
<!-- Generator: Adobe Illustrator 19.0.0, SVG Export Plug-In . SVG Version: 6.00 Build 0)  -->
<svg version="1.1" id="Layer_1" xmlns="http://www.w3.org/2000/svg" xmlns:xlink="http://www.w3.org/1999/xlink" x="0px" y="0px"
	 viewBox="0 0 1920 1080" style="enable-background:new 0 0 1920 1080;" xml:space="preserve">
<style type="text/css">
	.st0{fill:none;stroke:#00AEEF;stroke-width:5;stroke-miterlimit:10;}
</style>
<path id="XMLID_2_" class="st0" d="M87.1,528.1h139.5c11.6,0,21-9.4,21-21V313.6c0-11.6,9.4-21,21-21h3c11.6,0,21,9.4,21,21v429
	c0,11.6,9.4,21,21,21h4c11.6,0,21-9.4,21-21V549.1c0-11.6,9.4-21,21-21h98c11.6,0,21-9.4,21-21v-12c0-11.6,9.4-21,21-21h1.5
	c11.6,0,21,9.4,21,21v72c0,11.6,9.4,21,21,21h0c11.6,0,21-9.4,21-21v-18c0-11.6,9.4-21,21-21h106.5"/>
<path id="XMLID_3_" class="st0" d="M1815.6,528.1h-139.5c-11.6,0-21-9.4-21-21V313.6c0-11.6-9.4-21-21-21h-3c-11.6,0-21,9.4-21,21
	v269c0,11.6-9.4,21-21,21h-4c-11.6,0-21-9.4-21-21v-33.5c0-11.6-9.4-21-21-21h-98c-11.6,0-21-9.4-21-21v-12c0-11.6-9.4-21-21-21
	h-1.5c-11.6,0-21,9.4-21,21v272c0,11.6-9.4,21-21,21h0c-11.6,0-21-9.4-21-21v-218c0-11.6-9.4-21-21-21h-106.5"/>
</svg>
