<?xml version="1.0" encoding="utf-8"?>
<!-- Generator: Adobe Illustrator 19.0.0, SVG Export Plug-In . SVG Version: 6.00 Build 0)  -->
<svg version="1.1" xmlns="http://www.w3.org/2000/svg" xmlns:xlink="http://www.w3.org/1999/xlink" x="0px" y="0px"
	 viewBox="0 0 841.9 595.3" style="enable-background:new 0 0 841.9 595.3;" xml:space="preserve">
<style type="text/css">
	.st0{display:none;}
	.st1{display:inline;}
	.st2{fill:#EE1E38;stroke:#211C5C;stroke-width:2;stroke-miterlimit:10;}
	.st3{fill:none;stroke:#EE1E38;stroke-miterlimit:10;}
	.st4{display:none;fill:#0788BD;}
	.st5{display:none;fill:url(#SVGID_1_);}
	.st6{display:none;fill:url(#SVGID_2_);}
	.st7{display:none;fill:url(#SVGID_3_);}
	.st8{display:none;fill:url(#SVGID_4_);}
	.st9{display:none;fill:url(#SVGID_5_);}
	.st10{display:none;fill:url(#SVGID_6_);}
	.st11{display:none;fill:url(#SVGID_7_);}
	.st12{display:none;fill:url(#SVGID_8_);}
	.st13{display:none;fill:url(#SVGID_9_);}
	.st14{fill:url(#SVGID_10_);}
	.st15{display:none;fill:url(#SVGID_11_);}
	.st16{display:none;fill:url(#SVGID_12_);}
	.st17{display:none;fill:url(#SVGID_13_);}
	.st18{display:none;fill:url(#SVGID_14_);}
	.st19{display:none;fill:url(#SVGID_15_);}
	.st20{display:none;fill:url(#SVGID_16_);}
	.st21{display:none;fill:url(#SVGID_17_);}
	.st22{display:none;fill:url(#SVGID_18_);}
	.st23{display:none;fill:url(#SVGID_19_);}
	.st24{display:none;fill:url(#SVGID_20_);}
	.st25{display:none;fill:url(#SVGID_21_);}
	.st26{display:none;fill:url(#SVGID_22_);}
	.st27{display:none;fill:url(#SVGID_23_);}
	.st28{display:none;fill:url(#SVGID_24_);}
	.st29{fill:url(#SVGID_25_);}
	.st30{fill:url(#SVGID_26_);}
	.st31{fill:url(#SVGID_27_);}
	.st32{display:none;fill:url(#SVGID_28_);}
	.st33{display:none;fill:url(#SVGID_29_);}
	.st34{display:none;fill:url(#SVGID_30_);}
	.st35{display:none;fill:url(#SVGID_31_);}
	.st36{display:none;fill:url(#SVGID_32_);}
	.st37{display:none;fill:url(#SVGID_33_);}
	.st38{display:none;fill:url(#SVGID_34_);}
	.st39{display:none;fill:url(#SVGID_35_);}
	.st40{display:none;fill:url(#SVGID_36_);}
	.st41{display:none;fill:url(#SVGID_37_);}
	.st42{display:none;fill:url(#SVGID_38_);}
	.st43{display:none;fill:url(#SVGID_39_);}
	.st44{display:none;fill:url(#SVGID_40_);}
</style>
<g id="Layer_1" class="st0">
	<g class="st1">
		<path class="st2" d="M526.9,154.3c-2.4,1.5-5.2,1.7-7.8,2.7c-8.3,3.4-15.4,13.8-12.8,27.1c1.8,9.5,9.6,16.2,20.6,17.3
			c14.7,1.5,23.1-5.6,26.3-15c4.5-13.2-2.8-27.4-17.2-31.2c-2.8-0.7-5.7-1.4-8.6-1"/>
	</g>
	<g id="Layer_3" class="st1">
		<path class="st3" d="M255.3,483.1c5.3-0.8,10.7-1.1,15.8-2.5c14.3-3.8,27.9-9.5,40.9-16.7c2.1-1.2,4.4-3.4,6.7-2.8
			c3.5,0.9,6-0.5,8.7-2.1c3.5-2.1,7.1-4.1,10.6-6.3c21.2-13.3,42.1-27.3,62.5-41.8c21.1-15,39.6-32.8,54.8-53.8
			c19.8-27.3,28.7-57.6,24-91.3c-2.2-15.9-9.1-29.8-20.2-41.3c-18-18.7-40-32.1-62.6-44.1c-25-13.3-51.6-23.2-78.2-33
			c-17.2-6.3-33.6-14.6-47.1-27.4c-15-14.1-22.4-30.7-17-51.9c4.6-17.9,22.9-31.4,41.5-29.3c10.2,1.1,20,3.8,29.3,8.2
			c27.8,13.2,52.7,30.9,75.9,51c12.5,10.8,25.1,21.7,37,33.2c17.5,16.9,35,34,50.1,53.3c4.4,5.6,8.3,11.6,13.1,16.7
			c10,10.9,22.9,16.3,37.4,18.9c9.8,1.8,23-3.2,26.7-14.9c1.9-6.1,1.7-12.3,2.5-18.4c1.3-9.3-1.9-18.5-1.8-27.9
			c0.1-4.7,3.2-8.8,7.7-10.6c4.7-1.9,8.3-0.8,11.6,2.9c8.2,9.2,11.5,20.4,12.3,32.2c0.6,8.7,0.5,17.6-0.6,26.5
			c-1.2,10.2-2.6,20.3-4.9,30.3c-2.8,12.8-4.1,25.8-2,38.9c2.1,12.9,5.8,25.4,11.9,37c6,11.4,11.2,22.9,13.3,36
			c1.9,11.5,1.2,22.6-0.9,33.7c-2.7,14.3-8.7,27.3-15.8,39.9c-2.7,4.7-5,9.9-10.6,12c-10.2,4-20.4-2.8-22.9-14.9
			c-2.9-14.5,0-28.5,6.6-41.8c1.8-3.6,4.6-5.7,8.9-5.3l0.7,43.7c-0.1-12.3,2.1-24.7,0.8-37c-0.9-8,1.4-16.4-3.5-24.1
			c-7.1-11.1-17.2-16.1-29-15.2c-13.6,1.1-24.6,8.3-35.1,16.2c-19.3,14.7-35.1,32.7-49.1,52.4c-18.8,26.5-39.6,51.4-62.4,74.6
			c-19.2,19.5-39.8,37.3-63.1,51.8c-12.6,7.8-25.6,14.8-40.3,17.9c-3.2,0.7-3.5,1.1-6.9,1.6c-0.8,0-4.5,0.4-5,0.5
			c-6.6,1.1-14,0.8-14.3,0.7c-6.8-1.2-10.1-1.4-16-3.3c-20.4-6.5-32.3-21.3-40.3-40c-2.8-6.6-4.7-13.6-4.7-20.7
			c-0.1-10.7,3.2-20.7,9.5-29.3c13.2-17.7,30.4-30.1,51.4-37c12.6-4.1,25.6-5.1,38.9-4.6c11.6,0.4,22.9,2.3,34.1,5
			c2.6,0.6,5.1,1.3,6.2,4.1"/>
	</g>
</g>
<g id="Layer_4" class="st0">
	<rect class="st1" width="841.9" height="595.3"/>
	<image style="overflow:visible;" width="201" height="199" xlink:href="6151CDEA.jpg"  transform="matrix(1 0 0 1 16 173.8045)">
	</image>
	
		<image style="overflow:visible;" width="900" height="600" xlink:href="6151CDEE.jpg"  transform="matrix(0.2133 0 0 0.2133 16 23.2638)">
	</image>
</g>
<g id="Layer_6">
</g>
<g id="artwork">
	<g>
		<g>
			<path class="st4" d="M317.4,42.3c0,0-55,41.5,103.6,151.3l-124.4-57.5c0,0-62.9-30.8-39-74.8C257.6,61.3,276.7,29.3,317.4,42.3z"
				/>
			<linearGradient id="SVGID_1_" gradientUnits="userSpaceOnUse" x1="253.8056" y1="117.4857" x2="423.8981" y2="117.4857">
				<stop  offset="0.1829" style="stop-color:#2BB788"/>
				<stop  offset="0.609" style="stop-color:#40768B"/>
				<stop  offset="1" style="stop-color:#37736C"/>
			</linearGradient>
			<path class="st5" d="M423.9,196.3c0,0-148.2-104.6-106.5-154c-19.7-12.4-86.1,6.4-55.8,67C295.5,144,286.8,123.6,423.9,196.3z"/>
			<linearGradient id="SVGID_2_" gradientUnits="userSpaceOnUse" x1="422.9795" y1="50.4252" x2="394.6325" y2="316.9964">
				<stop  offset="5.675676e-002" style="stop-color:#2BB788"/>
				<stop  offset="0.5649" style="stop-color:#00A689"/>
				<stop  offset="0.7766" style="stop-color:#37736C"/>
				<stop  offset="0.9568" style="stop-color:#40768B"/>
				<stop  offset="1" style="stop-color:#275074"/>
			</linearGradient>
			<path class="st6" d="M427.4,198.6c92.3,65.4,41.5,135.6,41.5,135.6c7.9-2.1,54.5-31.6,32.2-111.7c-6.7-24.1-19.2-46.3-35.7-65.1
				c-64.7-74-137-108.3-137-108.3C323.5,51.5,264.3,64.7,427.4,198.6z"/>
			<linearGradient id="SVGID_3_" gradientUnits="userSpaceOnUse" x1="345.3786" y1="491.4829" x2="574.0453" y2="160.8163">
				<stop  offset="5.675676e-002" style="stop-color:#2BB788"/>
				<stop  offset="0.4063" style="stop-color:#00A689"/>
				<stop  offset="0.8198" style="stop-color:#37736C"/>
				<stop  offset="0.8559" style="stop-color:#40768B"/>
				<stop  offset="1" style="stop-color:#275074"/>
			</linearGradient>
			<path class="st7" d="M464.7,342.4c-39.1,73.7-165,127.8-165,127.8C520,458.3,566,201.4,566,201.4c-15.6,39.1-67-2-64,1.1
				C534,310.8,463.8,344.8,464.7,342.4z"/>
			<linearGradient id="SVGID_4_" gradientUnits="userSpaceOnUse" x1="631.5882" y1="181.4109" x2="511.3385" y2="333.1699">
				<stop  offset="5.675676e-002" style="stop-color:#2BB788"/>
				<stop  offset="0.1937" style="stop-color:#00A689"/>
				<stop  offset="0.6901" style="stop-color:#37736C"/>
				<stop  offset="0.845" style="stop-color:#40768B"/>
				<stop  offset="1" style="stop-color:#275074"/>
			</linearGradient>
			<path class="st8" d="M569.6,177.3c-0.1,2,1.7,40.1-2.5,54.1c-12.4,40.9-14,80.8-89.2,164.1c0,0,67.5-69.2,88.2-48.8
				c0,0,31.6-127,31.4-145C602,163.7,569.7,175.3,569.6,177.3z"/>
			<linearGradient id="SVGID_5_" gradientUnits="userSpaceOnUse" x1="252.6407" y1="476.5061" x2="477.8917" y2="476.5061">
				<stop  offset="5.675676e-002" style="stop-color:#2BB788"/>
				<stop  offset="0.2045" style="stop-color:#00A689"/>
				<stop  offset="0.5135" style="stop-color:#37736C"/>
				<stop  offset="0.845" style="stop-color:#40768B"/>
				<stop  offset="1" style="stop-color:#275074"/>
			</linearGradient>
			<path class="st9" d="M289.1,474.7c-22.3,12.5-43.3,65.5-34.4,80.3c97.4,26.7,223.2-159.6,223.2-159.6
				C389.8,487.8,289.1,474.7,289.1,474.7z"/>
			<linearGradient id="SVGID_6_" gradientUnits="userSpaceOnUse" x1="214.0394" y1="486.7125" x2="351.5" y2="486.7125">
				<stop  offset="5.675676e-002" style="stop-color:#2BB788"/>
				<stop  offset="0.1901" style="stop-color:#00A689"/>
				<stop  offset="0.5712" style="stop-color:#37736C"/>
				<stop  offset="0.845" style="stop-color:#40768B"/>
				<stop  offset="1" style="stop-color:#275074"/>
			</linearGradient>
			<path class="st10" d="M278,474.5c23.4-19,73.5-40,73.5-40c-14.1-7.7-55-24.5-102.5,7c-68,45.1-18.3,113.8-4.7,108.6
				C237.5,541.5,254.6,493.5,278,474.5z"/>
			<linearGradient id="SVGID_7_" gradientUnits="userSpaceOnUse" x1="619.4221" y1="197.1558" x2="468.3609" y2="387.7998">
				<stop  offset="5.675676e-002" style="stop-color:#2BB788"/>
				<stop  offset="0.1937" style="stop-color:#00A689"/>
				<stop  offset="0.6901" style="stop-color:#37736C"/>
				<stop  offset="0.845" style="stop-color:#40768B"/>
				<stop  offset="1" style="stop-color:#275074"/>
			</linearGradient>
			<path class="st11" d="M477.9,395.4c0,0,96-97.8,93.9-203.4c0-0.6-0.1-1.3-0.1-1.9c-0.7-4.9-3.1-28.3,11.5-21.2c4,2,7,5.5,8.4,9.7
				c2.9,8.6,6.3,27.1-0.9,59l-25.6,113C565.1,350.6,551.9,324.4,477.9,395.4z"/>
		</g>
	</g>
	
		<linearGradient id="SVGID_8_" gradientUnits="userSpaceOnUse" x1="578.1703" y1="368.9632" x2="567.045" y2="424.3578" gradientTransform="matrix(0.9918 0.128 -0.1203 0.932 52.9824 -43.957)">
		<stop  offset="5.675676e-002" style="stop-color:#2BB788"/>
		<stop  offset="0.4063" style="stop-color:#00A689"/>
		<stop  offset="0.6901" style="stop-color:#37736C"/>
		<stop  offset="0.845" style="stop-color:#40768B"/>
		<stop  offset="1" style="stop-color:#275074"/>
	</linearGradient>
	<path class="st12" d="M580.2,377.4c0,0-27.4,15.8-12.7,53.7C567.6,431,585.7,407.5,580.2,377.4z"/>
	<linearGradient id="SVGID_9_" gradientUnits="userSpaceOnUse" x1="505.5582" y1="175.1615" x2="550.0582" y2="176.1615">
		<stop  offset="5.675676e-002" style="stop-color:#2BB788"/>
		<stop  offset="0.4063" style="stop-color:#00A689"/>
		<stop  offset="0.5459" style="stop-color:#37736C"/>
		<stop  offset="0.8811" style="stop-color:#40768B"/>
		<stop  offset="1" style="stop-color:#275074"/>
	</linearGradient>
	<circle class="st13" cx="532" cy="175.8" r="24.4"/>
	
		<image style="display:none;overflow:visible;" width="1080" height="216" xlink:href="6151CDE9.jpg"  transform="matrix(0.3349 0 0 0.3349 16.1271 238.8284)">
	</image>
	<linearGradient id="SVGID_10_" gradientUnits="userSpaceOnUse" x1="610.462" y1="276.7103" x2="582.0455" y2="437.4666">
		<stop  offset="5.675676e-002" style="stop-color:#2BB788"/>
		<stop  offset="0.4063" style="stop-color:#00A689"/>
		<stop  offset="0.6901" style="stop-color:#37736C"/>
		<stop  offset="0.9027" style="stop-color:#40768B"/>
		<stop  offset="1" style="stop-color:#275074"/>
	</linearGradient>
	<path class="st14" d="M591.2,273.3c0,0,33.9,92.5,21,135.6c0,0-13.5,43.3-40.9,23.7c0,0,31.4-39.9,0-78.7L591.2,273.3z"/>
</g>
<g id="shading">
	<linearGradient id="SVGID_11_" gradientUnits="userSpaceOnUse" x1="395.219" y1="109.0057" x2="459.5356" y2="331.0993">
		<stop  offset="5.675676e-002" style="stop-color:#2BB788"/>
		<stop  offset="0.4063" style="stop-color:#00A689"/>
		<stop  offset="0.6901" style="stop-color:#37736C"/>
		<stop  offset="0.9171" style="stop-color:#40768B"/>
		<stop  offset="1" style="stop-color:#275074"/>
	</linearGradient>
	<path class="st15" d="M328.7,47.3c0,0,112.1,64.2,149.2,128.4s39,131.5-8.9,158.4c0,0,63.1-74.1-9.9-148.1S323.6,93.9,323.6,93.9
		S298.2,56.3,328.7,47.3z"/>
	<linearGradient id="SVGID_12_" gradientUnits="userSpaceOnUse" x1="408.9948" y1="127.656" x2="495.9948" y2="303.656">
		<stop  offset="5.675676e-002" style="stop-color:#2BB788"/>
		<stop  offset="0.5577" style="stop-color:#00A689"/>
		<stop  offset="0.791" style="stop-color:#37736C"/>
		<stop  offset="0.9495" style="stop-color:#40768B"/>
		<stop  offset="1" style="stop-color:#275074"/>
	</linearGradient>
	<path class="st16" d="M323.9,50.7c0,0,93.6,55.8,141.6,115.8s47.2,135.8,4.2,167.3c-0.1-0.2,24.7-10.1,34.1-44.5
		c7.7-28.2,5.1-70.3-33.2-125.8C431,107.7,332.1,49,328.5,49S324.5,50,323.9,50.7z"/>
	<linearGradient id="SVGID_13_" gradientUnits="userSpaceOnUse" x1="418.3578" y1="104.0206" x2="426.3578" y2="320.6873">
		<stop  offset="0.3018" style="stop-color:#2BB788"/>
		<stop  offset="0.6045" style="stop-color:#00A689"/>
		<stop  offset="0.7766" style="stop-color:#37736C"/>
		<stop  offset="0.845" style="stop-color:#40768B"/>
		<stop  offset="1" style="stop-color:#275074"/>
	</linearGradient>
	<path class="st17" d="M355.2,133.1c0,0,72.2,65.5,82.8,73.5c0,0,76.9,55.7,31,127.5c0,0,56.4-65.2-19.9-127.9
		C388.7,156.7,379.7,161.7,355.2,133.1z"/>
	<linearGradient id="SVGID_14_" gradientUnits="userSpaceOnUse" x1="410.3081" y1="147.9478" x2="444.3081" y2="344.2811">
		<stop  offset="5.675676e-002" style="stop-color:#2BB788"/>
		<stop  offset="0.7299" style="stop-color:#00A689"/>
		<stop  offset="0.8967" style="stop-color:#37736C"/>
		<stop  offset="0.9315" style="stop-color:#40768B"/>
		<stop  offset="1" style="stop-color:#275074"/>
	</linearGradient>
	<path class="st18" d="M355.2,133.1c6,8.1,75,67,82.8,73.5c0,0,76.9,55.7,31,127.5c-8.2,9.5,55.3-59-24.9-127.9
		C396.9,165.6,378.9,148.5,355.2,133.1z"/>
	<linearGradient id="SVGID_15_" gradientUnits="userSpaceOnUse" x1="367.3713" y1="458.0631" x2="599.3713" y2="138.7297">
		<stop  offset="5.675676e-002" style="stop-color:#2BB788"/>
		<stop  offset="0.2405" style="stop-color:#00A689"/>
		<stop  offset="0.4234" style="stop-color:#37736C"/>
		<stop  offset="0.8342" style="stop-color:#40768B"/>
		<stop  offset="1" style="stop-color:#275074"/>
	</linearGradient>
	<path class="st19" d="M564.1,205.6c0,0-2.3,10.2-14.2,11.5c0,0-34.6,209.4-250.2,253.2C299.7,470.2,508.1,468.1,564.1,205.6z"/>
	<linearGradient id="SVGID_16_" gradientUnits="userSpaceOnUse" x1="371.852" y1="447.4402" x2="566.352" y2="225.4402">
		<stop  offset="5.675676e-002" style="stop-color:#2BB788"/>
		<stop  offset="0.1116" style="stop-color:#00A689"/>
		<stop  offset="0.5025" style="stop-color:#37736C"/>
		<stop  offset="0.7475" style="stop-color:#40768B"/>
		<stop  offset="0.8875" style="stop-color:#275074"/>
	</linearGradient>
	<path class="st20" d="M566,201.4c1.3,0.7-47.1,260-265.4,268.9c1.8,1.2,200.8-7.7,263.4-264.8C564.1,205.4,565.2,203.1,566,201.4z"
		/>
	<linearGradient id="SVGID_17_" gradientUnits="userSpaceOnUse" x1="303.9477" y1="129.7125" x2="424.6228" y2="129.7125">
		<stop  offset="0.1423" style="stop-color:#37736C"/>
		<stop  offset="0.4703" style="stop-color:#40768B"/>
		<stop  offset="1" style="stop-color:#275074"/>
	</linearGradient>
	<path class="st21" d="M304.2,63.1c0,0-2,51.9,120.4,133.1C424.6,196.3,297.4,126.3,304.2,63.1z"/>
	<linearGradient id="SVGID_18_" gradientUnits="userSpaceOnUse" x1="347.3129" y1="42.615" x2="256.6914" y2="141.7953">
		<stop  offset="5.675676e-002" style="stop-color:#2BB788"/>
		<stop  offset="0.5324" style="stop-color:#00A689"/>
		<stop  offset="0.8126" style="stop-color:#37736C"/>
		<stop  offset="1" style="stop-color:#275074"/>
	</linearGradient>
	<path class="st22" d="M315,41.8c0,0-40-15.6-57.3,26.5c-17.8,43.3,44.7,72.6,66.2,77.7c0,0-64.9-20.6-48.9-68.3
		C294.7,34.3,315,41.8,315,41.8z"/>
	<linearGradient id="SVGID_19_" gradientUnits="userSpaceOnUse" x1="348.2505" y1="40.7365" x2="254.4517" y2="143.3941">
		<stop  offset="5.675676e-002" style="stop-color:#2BB788"/>
		<stop  offset="0.4892" style="stop-color:#2EB085"/>
		<stop  offset="0.8775" style="stop-color:#37736C"/>
		<stop  offset="1" style="stop-color:#40768B"/>
	</linearGradient>
	<path class="st23" d="M317.4,42.3c0,0-47.1-11.6-63.1,26.9c-18,43.2,48.1,71.7,69.6,76.8c0,0-74.2-21.8-58.2-69.5
		C285.4,33.2,317.4,42.3,317.4,42.3z"/>
	<linearGradient id="SVGID_20_" gradientUnits="userSpaceOnUse" x1="324.6525" y1="235.9159" x2="507.9858" y2="469.2492">
		<stop  offset="0" style="stop-color:#2BB788"/>
		<stop  offset="0.2658" style="stop-color:#2E5A7A"/>
		<stop  offset="0.4279" style="stop-color:#00A689"/>
		<stop  offset="0.8234" style="stop-color:#37736C"/>
		<stop  offset="0.9532" style="stop-color:#40768B"/>
		<stop  offset="1" style="stop-color:#275074"/>
	</linearGradient>
	<path class="st24" d="M502.1,202.5c1,0.2,34.1,97-36.8,142.1c0,0-41.4,74.4-166,127.2c0,0,119-38.2,177.6-110.8
		c22.1-21.9,61.1-89.5,38.5-150.8C511.7,207.4,504.1,205.6,502.1,202.5z"/>
	<linearGradient id="SVGID_21_" gradientUnits="userSpaceOnUse" x1="607.7114" y1="68.7677" x2="333.7113" y2="493.4344">
		<stop  offset="5.675676e-002" style="stop-color:#2BB788"/>
		<stop  offset="0.5829" style="stop-color:#00A689"/>
		<stop  offset="0.7766" style="stop-color:#37736C"/>
		<stop  offset="0.9027" style="stop-color:#40768B"/>
		<stop  offset="1" style="stop-color:#275074"/>
	</linearGradient>
	<path class="st25" d="M502.1,202.5c1.5,0.1,33.6,100.2-36.3,140.5c0,0-41.4,74.4-166,127.2c0,0,136.9-53.3,167.2-123.2
		C466.9,347,543.2,300.9,502.1,202.5z"/>
	<linearGradient id="SVGID_22_" gradientUnits="userSpaceOnUse" x1="618.524" y1="136.702" x2="531.1834" y2="355.6958">
		<stop  offset="5.675676e-002" style="stop-color:#2BB788"/>
		<stop  offset="0.5288" style="stop-color:#00A689"/>
		<stop  offset="0.6901" style="stop-color:#37736C"/>
		<stop  offset="0.845" style="stop-color:#40768B"/>
		<stop  offset="1" style="stop-color:#275074"/>
	</linearGradient>
	<path class="st26" d="M572.1,173.6c1.7-9.7,25.9-12.2,24.8,34.9c-1.1,7.9-3.8,24-6.6,34.4c-18.3,79.8-25.2,107.8-25.2,107.8
		c-1.3-1.6-7.6-4.1-10.6-4.5l24.4-88.4C578.9,257.7,607.5,192.6,572.1,173.6z"/>
	<linearGradient id="SVGID_23_" gradientUnits="userSpaceOnUse" x1="583.701" y1="211.2933" x2="474.6876" y2="381.5706">
		<stop  offset="5.675676e-002" style="stop-color:#2BB788"/>
		<stop  offset="0.4063" style="stop-color:#00A689"/>
		<stop  offset="0.6901" style="stop-color:#37736C"/>
		<stop  offset="0.845" style="stop-color:#40768B"/>
		<stop  offset="1" style="stop-color:#275074"/>
	</linearGradient>
	<path class="st27" d="M477.9,395.4c0,0,112.9-76.9,93.2-212.8C571.1,182.6,607.8,280.8,477.9,395.4z"/>
	<linearGradient id="SVGID_24_" gradientUnits="userSpaceOnUse" x1="602.2611" y1="190.2431" x2="492.1312" y2="347.3135">
		<stop  offset="5.675676e-002" style="stop-color:#2BB788"/>
		<stop  offset="0.5937" style="stop-color:#00A689"/>
		<stop  offset="0.8054" style="stop-color:#37736C"/>
		<stop  offset="0.9495" style="stop-color:#40768B"/>
		<stop  offset="1" style="stop-color:#275074"/>
	</linearGradient>
	<path class="st28" d="M477.9,395.3c0,0,131.4-96.3,93.2-212.7C571.1,182.6,589.9,279.3,477.9,395.3z"/>
	<linearGradient id="SVGID_25_" gradientUnits="userSpaceOnUse" x1="594.9548" y1="295.9238" x2="608.4796" y2="395.5393">
		<stop  offset="5.675676e-002" style="stop-color:#2BB788"/>
		<stop  offset="0.2009" style="stop-color:#00A689"/>
		<stop  offset="0.7838" style="stop-color:#37736C"/>
		<stop  offset="0.9387" style="stop-color:#40768B"/>
		<stop  offset="1" style="stop-color:#275074"/>
	</linearGradient>
	<path class="st29" d="M585.3,304.2c0.1,0.6,6.7-27.4,6.9-26.7c7,23.9,38,108.3,18.2,137.2C617.8,380.7,595.3,328.9,585.3,304.2z"/>
	<linearGradient id="SVGID_26_" gradientUnits="userSpaceOnUse" x1="603.7253" y1="299.2393" x2="598.7705" y2="422.3281">
		<stop  offset="5.675676e-002" style="stop-color:#2BB788"/>
		<stop  offset="0.5793" style="stop-color:#00A689"/>
		<stop  offset="0.6865" style="stop-color:#37736C"/>
		<stop  offset="0.7658" style="stop-color:#40768B"/>
		<stop  offset="1" style="stop-color:#275074"/>
	</linearGradient>
	<path class="st30" d="M587.5,288.8c0.1,0.6,4.2-11.9,4.4-11.3c6.7,23.1,41.1,109.7,15.9,141.8C619.2,394.1,602.7,334.8,587.5,288.8
		z"/>
	<linearGradient id="SVGID_27_" gradientUnits="userSpaceOnUse" x1="571.2869" y1="388.6231" x2="589.3963" y2="388.6231">
		<stop  offset="5.675676e-002" style="stop-color:#2BB788"/>
		<stop  offset="0.4063" style="stop-color:#00A689"/>
		<stop  offset="0.6901" style="stop-color:#37736C"/>
		<stop  offset="0.845" style="stop-color:#40768B"/>
		<stop  offset="1" style="stop-color:#275074"/>
	</linearGradient>
	<path class="st31" d="M571.3,354c2.8,5,27,35.1,0,78.7c0.1-3,39.1-39.3,2.3-88L571.3,354z"/>
	<linearGradient id="SVGID_28_" gradientUnits="userSpaceOnUse" x1="254.1535" y1="509.8807" x2="424.6228" y2="509.8807">
		<stop  offset="0" style="stop-color:#2BB788"/>
		<stop  offset="0.1541" style="stop-color:#00A689"/>
		<stop  offset="0.5315" style="stop-color:#37736C"/>
		<stop  offset="0.845" style="stop-color:#40768B"/>
		<stop  offset="1" style="stop-color:#275074"/>
	</linearGradient>
	<path class="st32" d="M254.7,555c0,0-1.5-12.6,0.4-22c0,0,50.2,30.7,169.5-70.7C403.7,482.4,328.5,573.3,254.7,555z"/>
	<linearGradient id="SVGID_29_" gradientUnits="userSpaceOnUse" x1="253.3105" y1="509.8807" x2="423.851" y2="509.8807">
		<stop  offset="5.675676e-002" style="stop-color:#2BB788"/>
		<stop  offset="0.2081" style="stop-color:#00A689"/>
		<stop  offset="0.445" style="stop-color:#37736C"/>
		<stop  offset="0.636" style="stop-color:#40768B"/>
		<stop  offset="1" style="stop-color:#275074"/>
	</linearGradient>
	<path class="st33" d="M254,555c-0.6-1.6-0.6-1.3-0.6-5c9.1,2.5,67.6,18.2,170.5-87.7C403,482.4,327.7,573.3,254,555z"/>
	<linearGradient id="SVGID_30_" gradientUnits="userSpaceOnUse" x1="268.8358" y1="461.4254" x2="447.4166" y2="461.4254">
		<stop  offset="5.675676e-002" style="stop-color:#2BB788"/>
		<stop  offset="0.2694" style="stop-color:#00A689"/>
		<stop  offset="0.7766" style="stop-color:#37736C"/>
		<stop  offset="0.845" style="stop-color:#40768B"/>
		<stop  offset="1" style="stop-color:#275074"/>
	</linearGradient>
	<path class="st34" d="M289.1,474.7c0,0,82.7,9.4,158.3-51.7c0,0-105.7,93.9-178.6,73.9C268.8,497,281.7,477,289.1,474.7z"/>
	<linearGradient id="SVGID_31_" gradientUnits="userSpaceOnUse" x1="280.9002" y1="453.7495" x2="447.2499" y2="453.7495">
		<stop  offset="5.675676e-002" style="stop-color:#2BB788"/>
		<stop  offset="0.5613" style="stop-color:#00A689"/>
		<stop  offset="0.7586" style="stop-color:#37736C"/>
		<stop  offset="0.9315" style="stop-color:#40768B"/>
		<stop  offset="1" style="stop-color:#275074"/>
	</linearGradient>
	<path class="st35" d="M289,474.7c0,0,82.7,9.4,158.3-51.7c0,0-93.5,78.1-166.3,58.1C280.9,481.2,284,477.7,289,474.7z"/>
	<linearGradient id="SVGID_32_" gradientUnits="userSpaceOnUse" x1="252.9993" y1="467.3707" x2="351.5" y2="467.3707">
		<stop  offset="5.675676e-002" style="stop-color:#2BB788"/>
		<stop  offset="0.1324" style="stop-color:#00A689"/>
		<stop  offset="0.2432" style="stop-color:#37736C"/>
		<stop  offset="0.618" style="stop-color:#40768B"/>
		<stop  offset="1" style="stop-color:#275074"/>
	</linearGradient>
	<path class="st36" d="M330.7,426.3c0,0-83.4,23.7-77.4,82.2c0,0,0.8-38.3,98.2-74C346,430.3,330.7,426.3,330.7,426.3z"/>
	<linearGradient id="SVGID_33_" gradientUnits="userSpaceOnUse" x1="251.9124" y1="472.3539" x2="349.4608" y2="472.3539">
		<stop  offset="5.675676e-002" style="stop-color:#2BB788"/>
		<stop  offset="0.2225" style="stop-color:#00A689"/>
		<stop  offset="0.391" style="stop-color:#37736C"/>
		<stop  offset="0.5928" style="stop-color:#40768B"/>
		<stop  offset="1" style="stop-color:#275074"/>
	</linearGradient>
	<path class="st37" d="M335.6,434.3c0,0-76.3,22.4-83.7,77.2c0,0,0-37.8,97.5-75.9C344,431.3,335.6,434.3,335.6,434.3z"/>
	<linearGradient id="SVGID_34_" gradientUnits="userSpaceOnUse" x1="242.7718" y1="417.7428" x2="230.1051" y2="587.0761">
		<stop  offset="5.675676e-002" style="stop-color:#2BB788"/>
		<stop  offset="0.4063" style="stop-color:#00A689"/>
		<stop  offset="0.6901" style="stop-color:#37736C"/>
		<stop  offset="0.845" style="stop-color:#40768B"/>
		<stop  offset="1" style="stop-color:#275074"/>
	</linearGradient>
	<path class="st38" d="M244.3,550.1c4.7,10.7-54.1-26-17.3-88.7c0,0,19.4-21.7,36.3-28.2C263.4,433.3,201.7,517.2,244.3,550.1z"/>
	<linearGradient id="SVGID_35_" gradientUnits="userSpaceOnUse" x1="215.5806" y1="381.8948" x2="259.5806" y2="546.5615">
		<stop  offset="5.675676e-002" style="stop-color:#2BB788"/>
		<stop  offset="0.4063" style="stop-color:#00A689"/>
		<stop  offset="0.6901" style="stop-color:#37736C"/>
		<stop  offset="0.845" style="stop-color:#40768B"/>
		<stop  offset="1" style="stop-color:#275074"/>
	</linearGradient>
	<path class="st39" d="M243.4,549.5c3.9,8.9-36.7-15.4-28.4-60.3c2.9-15.7,11.3-29.8,23.3-40.4c6.9-6.1,18.4-12.5,26.7-15.6
		C265,433.3,184.6,497.5,243.4,549.5z"/>
	<linearGradient id="SVGID_36_" gradientUnits="userSpaceOnUse" x1="531.9993" y1="175.7538" x2="556.4732" y2="175.7538">
		<stop  offset="5.675676e-002" style="stop-color:#2BB788"/>
		<stop  offset="0.309" style="stop-color:#00A689"/>
		<stop  offset="0.5712" style="stop-color:#37736C"/>
		<stop  offset="0.7586" style="stop-color:#40768B"/>
		<stop  offset="1" style="stop-color:#275074"/>
	</linearGradient>
	<path class="st40" d="M532,151.4c0,0,21.4-0.9,24.4,24.4c0.7,0.9-1.6,23.8-24.4,24.4c0,0,17.5-9.3,15.8-25.1
		C547.2,169.8,547.3,161.8,532,151.4z"/>
	<linearGradient id="SVGID_37_" gradientUnits="userSpaceOnUse" x1="532.1243" y1="175.8721" x2="555.25" y2="175.8721">
		<stop  offset="5.675676e-002" style="stop-color:#2BB788"/>
		<stop  offset="0.4063" style="stop-color:#00A689"/>
		<stop  offset="0.6901" style="stop-color:#37736C"/>
		<stop  offset="0.845" style="stop-color:#40768B"/>
		<stop  offset="1" style="stop-color:#275074"/>
	</linearGradient>
	<path class="st41" d="M532.1,151.5c0,0,20.2-1.5,23.1,23.7c-0.1,2.1-0.3,24.5-23.1,25c0,0,22.4-5.5,21.3-25.4
		C552.9,169.7,548.8,158.3,532.1,151.5z"/>
	<linearGradient id="SVGID_38_" gradientUnits="userSpaceOnUse" x1="507.6849" y1="177.2745" x2="515.25" y2="177.2745">
		<stop  offset="5.675676e-002" style="stop-color:#2BB788"/>
		<stop  offset="0.4063" style="stop-color:#00A689"/>
		<stop  offset="0.6901" style="stop-color:#37736C"/>
		<stop  offset="0.845" style="stop-color:#40768B"/>
		<stop  offset="1" style="stop-color:#275074"/>
	</linearGradient>
	<path class="st42" d="M512.1,161.4c0,0-4.1,15.5,3.2,31.7C506,183.1,505.6,173.2,512.1,161.4z"/>
	
		<linearGradient id="SVGID_39_" gradientUnits="userSpaceOnUse" x1="574.2697" y1="397.8754" x2="579.6425" y2="397.8754" gradientTransform="matrix(0.9918 0.128 -0.1203 0.932 52.9824 -43.957)">
		<stop  offset="5.675676e-002" style="stop-color:#2BB788"/>
		<stop  offset="0.4063" style="stop-color:#00A689"/>
		<stop  offset="0.6901" style="stop-color:#37736C"/>
		<stop  offset="0.845" style="stop-color:#40768B"/>
		<stop  offset="1" style="stop-color:#275074"/>
	</linearGradient>
	<path class="st43" d="M580.2,377.4c0,0,5.1,19.3-8.2,46.5C572.1,423.8,575.5,382.7,580.2,377.4z"/>
	
		<linearGradient id="SVGID_40_" gradientUnits="userSpaceOnUse" x1="564.0864" y1="409.7873" x2="571.1602" y2="409.7873" gradientTransform="matrix(0.9918 0.128 -0.1203 0.932 52.9824 -43.957)">
		<stop  offset="5.675676e-002" style="stop-color:#2BB788"/>
		<stop  offset="0.4063" style="stop-color:#00A689"/>
		<stop  offset="0.6901" style="stop-color:#37736C"/>
		<stop  offset="0.845" style="stop-color:#40768B"/>
		<stop  offset="1" style="stop-color:#275074"/>
	</linearGradient>
	<path class="st44" d="M568,390.6c0,0-10.2,19-0.5,40.4C567.6,431,561.7,399,568,390.6z"/>
</g>
</svg>
